<svg width="39" height="39" viewBox="0 0 39 39" fill="none" xmlns="http://www.w3.org/2000/svg">
<path fill-rule="evenodd" clip-rule="evenodd" d="M19.5 30.5002C25.5751 30.5002 30.5 25.5753 30.5 19.5001C30.5 13.4249 25.5751 8.5 19.5 8.5C13.4249 8.5 8.5 13.4249 8.5 19.5001C8.5 25.5753 13.4249 30.5002 19.5 30.5002ZM19.5 31.0002C25.8513 31.0002 31 25.8514 31 19.5001C31 13.1488 25.8513 8 19.5 8C13.1487 8 8 13.1488 8 19.5001C8 25.8514 13.1487 31.0002 19.5 31.0002Z" fill="#C4C4C4"/>
<path d="M19.5 39C8.74636 39 0 30.2495 0 19.4973C0 8.74516 8.74636 0 19.5 0C30.2536 0 39 8.74516 39 19.4973C39 30.2495 30.2536 39 19.5 39ZM19.5 1.6056C9.63492 1.6056 1.60582 9.63359 1.60582 19.4973C1.60582 29.3611 9.63492 37.389 19.5 37.389C29.3651 37.389 37.3942 29.3611 37.3942 19.4973C37.3942 9.63359 29.3704 1.6056 19.5 1.6056Z" fill="#C4C4C4"/>
<path d="M24.5738 29.0003C24.3668 29.0003 24.1598 28.9487 23.9666 28.8455L20.489 26.9714C19.845 26.6233 19.0354 26.6147 18.3822 26.9543L14.8724 28.7725C14.4952 28.9702 14.0444 28.9616 13.6718 28.7596C13.2992 28.5532 13.0738 28.1879 13.0738 27.7838L13.0692 24.0314C13.0692 23.3351 12.669 22.6774 12.0296 22.3206L8.58887 20.3907C8.21627 20.1801 7.99547 19.8147 8.00007 19.4107C8.00467 19.0066 8.23007 18.6413 8.60727 18.4392L12.0802 16.5609C12.7242 16.2127 13.1336 15.5637 13.1474 14.863L13.2164 11.1149C13.2256 10.7108 13.4556 10.3498 13.8328 10.1478C14.21 9.95004 14.6608 9.95004 15.0334 10.1521L18.511 12.0261C19.155 12.3743 19.9646 12.3829 20.6178 12.0433L24.1276 10.2251C24.5094 10.0274 24.9556 10.036 25.3282 10.238C25.7008 10.4443 25.9262 10.8097 25.9262 11.2137L25.9308 14.9662C25.9308 15.6625 26.331 16.3202 26.9704 16.6769L30.4111 18.6069C30.7837 18.8175 31.0045 19.1829 30.9999 19.5869C30.9953 19.9909 30.7699 20.3563 30.3927 20.5583L26.9198 22.4367C26.2758 22.7849 25.8664 23.4339 25.8526 24.1345L25.7836 27.8827C25.7744 28.2867 25.5444 28.6478 25.1718 28.8498C24.9832 28.953 24.7808 29.0003 24.5738 29.0003ZM19.4218 25.4197C20.029 25.4197 20.6408 25.5659 21.179 25.8582L24.4082 27.599L24.4726 24.1174C24.4956 22.9697 25.1672 21.9037 26.2298 21.3277L29.4589 19.5826L26.262 17.7902C25.2086 17.2013 24.5554 16.1224 24.5554 14.9748L24.5508 11.4888L21.2894 13.1781C20.2176 13.7326 18.8882 13.724 17.8256 13.1523L14.5964 11.4115L14.532 14.8931C14.509 16.0408 13.8374 17.1068 12.7748 17.6827L9.54566 19.4279L12.7426 21.2203C13.796 21.8091 14.4492 22.8923 14.4492 24.0357L14.4538 27.5216L17.7152 25.8324C18.2442 25.5573 18.833 25.4197 19.4218 25.4197Z" fill="#C4C4C4"/>
</svg>
